<?xml version="1.0" encoding="UTF-8"?>
<svg id="_图层_1" xmlns="http://www.w3.org/2000/svg" version="1.1" xmlns:xlink="http://www.w3.org/1999/xlink" viewBox="0 0 113 115">
  <!-- Generator: Adobe Illustrator 29.8.2, SVG Export Plug-In . SVG Version: 2.1.1 Build 3)  -->
  <defs>
    <style>
      .st0 {
        fill: url(#_未命名的渐变_5);
      }

      .st0, .st1 {
        fill-rule: evenodd;
      }

      .st2 {
        fill: url(#_未命名的渐变_53);
      }

      .st1 {
        fill: url(#_未命名的渐变);
      }

      .st3 {
        fill: url(#_未命名的渐变_3);
      }

      .st4 {
        fill: url(#_未命名的渐变_4);
      }

      .st5 {
        fill: url(#_未命名的渐变_2);
      }
    </style>
    <linearGradient id="_未命名的渐变" data-name="未命名的渐变" x1="46.98" y1="1061.45" x2="114.98" y2="1062.95" gradientTransform="translate(0 -964)" gradientUnits="userSpaceOnUse">
      <stop offset=".24" stop-color="#ebda72"/>
      <stop offset=".55" stop-color="#6bbd70"/>
      <stop offset="1" stop-color="#38d9b1"/>
    </linearGradient>
    <linearGradient id="_未命名的渐变_2" data-name="未命名的渐变 2" x1="79.6" y1="998.45" x2="53.6" y2="1013.45" gradientTransform="translate(0 -964)" gradientUnits="userSpaceOnUse">
      <stop offset=".3" stop-color="#aed4b1"/>
      <stop offset=".6" stop-color="#e2e2c1"/>
      <stop offset="1" stop-color="#e7e7e7"/>
    </linearGradient>
    <linearGradient id="_未命名的渐变_3" data-name="未命名的渐变 3" x1="49.1" y1="966.43" x2="52.6" y2="1010.43" gradientTransform="translate(0 -964)" gradientUnits="userSpaceOnUse">
      <stop offset=".4" stop-color="#aed4b1"/>
      <stop offset=".61" stop-color="#e2e2c1"/>
      <stop offset=".9" stop-color="#ebebeb"/>
    </linearGradient>
    <linearGradient id="_未命名的渐变_4" data-name="未命名的渐变 4" x1="53.55" y1="1004.52" x2="45.05" y2="1025.02" gradientTransform="translate(0 -964)" gradientUnits="userSpaceOnUse">
      <stop offset="0" stop-color="#f2d6b0"/>
      <stop offset=".94" stop-color="#aa967a"/>
    </linearGradient>
    <linearGradient id="_未命名的渐变_53" data-name="未命名的渐变 53" x1="105.16" y1="88.39" x2="6.53" y2="31.44" gradientUnits="userSpaceOnUse">
      <stop offset="0" stop-color="#cff87d"/>
      <stop offset="1" stop-color="#46bfc5"/>
    </linearGradient>
    <linearGradient id="_未命名的渐变_5" data-name="未命名的渐变 5" x1="105.88" y1="970.18" x2="65.38" y2="1067.18" gradientTransform="translate(0 -964)" gradientUnits="userSpaceOnUse">
      <stop offset=".04" stop-color="#549a89"/>
      <stop offset=".5" stop-color="#3ffbac"/>
      <stop offset=".77" stop-color="#dfe680"/>
      <stop offset="1" stop-color="#fed369"/>
    </linearGradient>
  </defs>
  <path class="st1" d="M101.5,91.5s-8,15-24,15c-10.5,0-11-15.5-28.5-15,10.53-5.1,26.5,0,32.5,4,4.5,3,15.65.51,20-4ZM89,99.5s-6.61,3-10.5,3c-7,0-8.5-7-16.5-11,3.76-.29,10.57,2.61,16,6,4,2.5,6.5,2,11,2Z"/>
  <path class="st5" d="M63.5,38.5c8.98.82,8.5,2,17-3.5,0,0-7.96,15.5-20.5,15.5h-5.5l-.5-6c0-2.5,4.5-6.45,9.5-6Z"/>
  <path class="st3" d="M42.5,38c2.97-14.5,15-18,3-36.5,0,0,15,7,15,22.5,0,10-6,12-14.5,22.5,0,0-4.59-3.17-3.5-8.5Z"/>
  <path class="st4" d="M45.5,50.5c3.5-4,6-6,6-6,1,3.5,1,8,1,8l-6,5c-2-2.5-1-7-1-7Z"/>
  <path class="st2" d="M75.5,79.5h-5.5c6-8.5,20.5-11.5,29-21.5-1.9,11.86-10.5,21.5-23.5,21.5ZM79.5,91c16.5-2,24-7,32-16.5,0,0-.5,9-10,14.5-9.96,5.77-22,2-22,2ZM61.5,9c-4.01,0-8-5.5-8-5.5h4.5c5,0,17,0,20.5,11,0,0-9.5-5.5-17-5.5ZM59.5,36.5s4-5,4-12.5c0,0,5.5,4.5,10.5,4.5,3,0,7.5-1.5,7.5-1.5,0,2-5,9.5-10,9.5-5.5,0-6.5-1.5-12,0ZM51,94c10.5,0,13.5,10,22,19,0,0-6.75,2-15,2s-29.61-5.18-28.5-8.5c5-13.5,7-11.5,7-19,0-4.37-1.5-9.62-4.5-10-1.75-.22-10,3.5-10,3.5-3-7-11.5-13.5-11.5-14.5,0-.8.82-1.53,1.5-2.5.6-.85,1.03-2,1.5-2,1,0,6,2.5,6,2.5.5-4-2-8.5-2-8.5,0,0,3.89,4,14,4,5,0-1.36,5.17-3,9-.53,1.24,6-.5,8,1s-.03,4.12,5.5,11.5c0,0-5.5,10.5-2.5,17,0,0,6.75-4.5,11.5-4.5ZM53.5,69.5c-2.5-6-2-13-2-13l2.5-2,9,8.5-9.5,6.5ZM43.5,78.5s-4-2.5-4-14c-1.5,0-1,1-6.5,3,13-28-7-46.5-18-45,4.08-4.23,11.18-8.92,24.5-10,2.27-.18,5.21-.76,7.5,1,3.25,2.5-4.5,15-4.5,15-8-8.5-14-7-14-7,0,0,15.25,5.78,12.5,11-3.79,7.19-.04,13.43,1.47,15.96l.03.04c-.5,8,1,13,3,13,1.68,0,4-4.3,4-2.5,0,7.5,1.5,11,1.5,11,0,2.5-3.5,4-7.5,8.5ZM65,61.5l-7.5-7c10-2,16.5-5.5,23-13-1,8-15.5,20-15.5,20ZM3.5,45c0-9,5.5-12.54,15-12.5,18,.08,15.5,17,15.5,17l-6.5-3c4,5.5,6.5,5.5,6.5,5.5v6c-8,0-15.5-3-20.5-9,0,3,3.5,12,3.5,12l-7.5-4.5,1.5,4.5s-7.5-6.5-7.5-16ZM5.5,33.5s2.82-7.73,10.5-8.5c5-.5,8.5,3,12.5,7h0s-2-2-10-2-13,3.5-13,3.5ZM16,93.5C-.5,79.5,1.5,55.5,1.5,55.5c0,0,3,2.5,5.5,9.5,2.14,6-3,8.5,14,27.5,0,0-3.68,2.12-5,1ZM17.5,98.5s16-4.5,15-18c0,0,2.7,6.6,0,12-3,6-2,4-6,12.5l-9-6.5ZM31.5,9c4.5-3.5,8.5-4.5,12-4.5,3,0,3.5,4.5,3.5,4.5,0,0-4.05-.5-7-.5s-8.5.5-8.5.5Z"/>
  <path class="st0" d="M61.5,83.5l6-6.5s-14.44,3-21.5,13c0,0,4.95-3,13-3,7.5,0,10.73.44,14.5.5,56,.96,46.5-65.5,3-82,0,0,12,11,7.5,37-4.07,23.5-43,31-43,50.5,10-17.5,22.5-20.5,35-25,10-3.6,18.66-10.42,24.5-20,0,0,6,14.25-5,27.5-7.89,9.5-34,8-34,8ZM99,35s3,2,6.5,8.5c-.5-11-9-20-15-24,0,0,3.79,9,3.5,17-.4,11-8,22-8,22,11.5-5.5,13-23.5,13-23.5Z"/>
</svg>